<svg xmlns="http://www.w3.org/2000/svg" width="96" height="112" viewBox="0 0 48 56" role="img" aria-label="江照夜，云梦水盟舰队主将" shape-rendering="crispEdges" style="image-rendering:pixelated">

<rect x="0" y="0" width="48" height="56" fill="#3d4554"/><rect x="0" y="31" width="48" height="25" fill="#59616b"/><g transform="scale(2)"><rect x="2" y="2" width="4" height="1" fill="#eee3c7" opacity="0.55"/><rect x="2" y="3" width="1" height="4" fill="#eee3c7" opacity="0.55"/><rect x="5" y="3" width="1" height="4" fill="#eee3c7" opacity="0.55"/><rect x="3" y="7" width="2" height="1" fill="#d69a4e" opacity="0.45"/><rect x="19" y="2" width="2" height="6" fill="#1e1c1b" opacity="0.18"/></g><polygon points="1,56 3,48 9,42 16,38 21,36 29,36 36,39 43,44 47,51 47,56" fill="#1e1c1b"/><polygon points="4,56 6,47 15,40 22,38 29,38 39,44 44,51 45,56" fill="#2f5e68"/><polygon points="4,56 6,48 14,42 18,42 13,56" fill="#77746b" opacity="0.85"/><polygon points="35,42 41,47 45,56 34,56 30,39" fill="#77746b" opacity="0.72"/><rect x="18" y="32" width="12" height="8" fill="#b7755b"/><rect x="20" y="34" width="8" height="5" fill="#d0916f"/><polygon points="15,38 24,44 33,38 36,43 28,49 19,49 12,43" fill="#8d3e34"/><rect x="17" y="43" width="14" height="12" fill="#2f5e68"/><rect x="23" y="42" width="3" height="14" fill="#8d3e34"/><rect x="18" y="46" width="2" height="8" fill="#77746b" opacity="0.7"/><rect x="29" y="46" width="2" height="8" fill="#1e1c1b" opacity="0.28"/><rect x="13" y="15" width="3" height="14" fill="#b7755b"/><rect x="34" y="15" width="3" height="14" fill="#b7755b"/><polygon points="15,10 20,7 31,7 35,11 37,18 35,29 30,35 20,35 15,30 13,20" fill="#b7755b"/><polygon points="16,12 20,9 31,9 34,13 34,26 31,32 27,35 27,13" fill="#925d4d" opacity="0.34"/><rect x="17" y="15" width="7" height="2" fill="#7e4d42" opacity="0.35"/><rect x="27" y="15" width="6" height="2" fill="#7e4d42" opacity="0.35"/><rect x="18" y="19" width="4" height="2" fill="#1e1c1b"/><rect x="29" y="19" width="4" height="2" fill="#1e1c1b"/><rect x="19" y="19" width="1" height="1" fill="#efe0c4"/><rect x="30" y="19" width="1" height="1" fill="#efe0c4"/><rect x="24" y="21" width="2" height="5" fill="#a66752" opacity="0.75"/><rect x="25" y="26" width="3" height="1" fill="#d0916f"/><rect x="21" y="29" width="8" height="2" fill="#78483f"/><rect x="23" y="29" width="4" height="1" fill="#c77c68"/><polygon points="12,18 14,9 20,5 32,6 37,12 38,20 34,18 33,11 17,11 16,22 12,23" fill="#24272b"/><rect x="35" y="16" width="6" height="15" fill="#24272b"/><rect x="39" y="27" width="5" height="8" fill="#24272b"/><rect x="16" y="8" width="9" height="2" fill="#d0916f" opacity="0.15"/><rect x="42" y="7" width="2" height="48" fill="#604430"/><polygon points="39,7 43,0 47,7" fill="#77746b"/><rect x="42" y="3" width="2" height="4" fill="#d0916f" opacity="0.28"/><rect x="7" y="50" width="1" height="1" fill="#8d3e34" opacity="0.55"/><rect x="10" y="46" width="1" height="1" fill="#8d3e34" opacity="0.55"/><rect x="34" y="48" width="1" height="1" fill="#8d3e34" opacity="0.55"/><rect x="38" y="52" width="1" height="1" fill="#8d3e34" opacity="0.55"/><rect x="15" y="52" width="1" height="1" fill="#8d3e34" opacity="0.55"/><rect x="0" y="0" width="48" height="2" fill="#1e1c1b"/><rect x="0" y="54" width="48" height="2" fill="#1e1c1b"/><rect x="0" y="0" width="2" height="56" fill="#1e1c1b"/><rect x="46" y="0" width="2" height="56" fill="#1e1c1b"/>
</svg>
