<svg xmlns="http://www.w3.org/2000/svg" width="128" height="128" viewBox="0 0 64 64" role="img" aria-label="赤石誓约烽塔" shape-rendering="crispEdges" style="image-rendering:pixelated">

<g transform="scale(2)"><rect x="0" y="0" width="32" height="32" fill="none"/><rect x="0" y="0" width="32" height="32" fill="none"/><rect x="9" y="27" width="14" height="3" fill="#4b433e"/><rect x="11" y="10" width="10" height="18" fill="#6f747c"/><rect x="9" y="8" width="14" height="4" fill="#9ca0a5"/><rect x="12" y="4" width="8" height="5" fill="#6f747c"/><rect x="14" y="1" width="4" height="4" fill="#9ca0a5"/><rect x="15" y="4" width="2" height="20" fill="#171b23" opacity="0.35"/><rect x="14" y="11" width="4" height="8" fill="#d5a14d"/><rect x="15" y="12" width="2" height="6" fill="#f2d58c"/><rect x="8" y="7" width="3" height="2" fill="#d5a14d"/><rect x="21" y="7" width="3" height="2" fill="#d5a14d"/></g><rect x="8" y="59" width="48" height="2" fill="#171b23" opacity="0.28"/><rect x="12" y="61" width="40" height="1" fill="#171b23" opacity="0.14"/><rect x="24" y="31" width="7" height="1" fill="#9ca0a5" opacity="0.5"/><rect x="37" y="39" width="4" height="1" fill="#171b23" opacity="0.35"/><rect x="21" y="47" width="5" height="1" fill="#171b23" opacity="0.28"/><rect x="31" y="53" width="6" height="1" fill="#9ca0a5" opacity="0.3"/>
</svg>
